<mxfile host="app.diagrams.net" agent="Mozilla/5.0 (Windows NT 10.0; Win64; x64) AppleWebKit/537.36 (KHTML, like Gecko) Chrome/138.0.0.0 Safari/537.36" version="28.1.0">
  <diagram name="Page-1" id="f3oQ5LRcddHJvxn3tWxZ">
    <mxGraphModel dx="780" dy="873" grid="1" gridSize="10" guides="1" tooltips="1" connect="1" arrows="1" fold="1" page="1" pageScale="1" pageWidth="850" pageHeight="1100" math="0" shadow="0">
      <root>
        <mxCell id="0" />
        <mxCell id="1" parent="0" />
        <mxCell id="9CLdCisUwHuKOpTyr1gm-10" value="" style="edgeStyle=orthogonalEdgeStyle;rounded=0;orthogonalLoop=1;jettySize=auto;html=1;" edge="1" parent="1" source="9CLdCisUwHuKOpTyr1gm-1" target="9CLdCisUwHuKOpTyr1gm-3">
          <mxGeometry relative="1" as="geometry" />
        </mxCell>
        <mxCell id="9CLdCisUwHuKOpTyr1gm-1" value="START" style="strokeWidth=2;html=1;shape=mxgraph.flowchart.terminator;whiteSpace=wrap;" vertex="1" parent="1">
          <mxGeometry x="280" y="70" width="100" height="60" as="geometry" />
        </mxCell>
        <mxCell id="9CLdCisUwHuKOpTyr1gm-2" value="END" style="strokeWidth=2;html=1;shape=mxgraph.flowchart.terminator;whiteSpace=wrap;" vertex="1" parent="1">
          <mxGeometry x="280" y="1030" width="100" height="60" as="geometry" />
        </mxCell>
        <mxCell id="9CLdCisUwHuKOpTyr1gm-11" value="" style="edgeStyle=orthogonalEdgeStyle;rounded=0;orthogonalLoop=1;jettySize=auto;html=1;" edge="1" parent="1" source="9CLdCisUwHuKOpTyr1gm-3" target="9CLdCisUwHuKOpTyr1gm-4">
          <mxGeometry relative="1" as="geometry" />
        </mxCell>
        <mxCell id="9CLdCisUwHuKOpTyr1gm-3" value="Clock Time (Tc),&amp;nbsp;&lt;div&gt;Feeding Time (Tf),&amp;nbsp;&lt;/div&gt;&lt;div&gt;Food Level (Fl),&amp;nbsp;&lt;/div&gt;&lt;div&gt;Food Weight (Fw)&lt;/div&gt;" style="shape=parallelogram;html=1;strokeWidth=2;perimeter=parallelogramPerimeter;whiteSpace=wrap;rounded=1;arcSize=12;size=0.23;" vertex="1" parent="1">
          <mxGeometry x="245" y="160" width="170" height="80" as="geometry" />
        </mxCell>
        <mxCell id="9CLdCisUwHuKOpTyr1gm-7" style="edgeStyle=orthogonalEdgeStyle;rounded=0;orthogonalLoop=1;jettySize=auto;html=1;" edge="1" parent="1" source="9CLdCisUwHuKOpTyr1gm-4" target="9CLdCisUwHuKOpTyr1gm-6">
          <mxGeometry relative="1" as="geometry">
            <Array as="points">
              <mxPoint x="330" y="390" />
            </Array>
          </mxGeometry>
        </mxCell>
        <mxCell id="9CLdCisUwHuKOpTyr1gm-8" style="edgeStyle=orthogonalEdgeStyle;rounded=0;orthogonalLoop=1;jettySize=auto;html=1;" edge="1" parent="1" source="9CLdCisUwHuKOpTyr1gm-4" target="9CLdCisUwHuKOpTyr1gm-5">
          <mxGeometry relative="1" as="geometry">
            <Array as="points">
              <mxPoint x="330" y="390" />
            </Array>
          </mxGeometry>
        </mxCell>
        <mxCell id="9CLdCisUwHuKOpTyr1gm-4" value="Is it&amp;nbsp;&lt;div&gt;Feeding Time (Tc=Tf)?&lt;/div&gt;" style="shape=rhombus;html=1;dashed=0;whiteSpace=wrap;perimeter=rhombusPerimeter;" vertex="1" parent="1">
          <mxGeometry x="280" y="270" width="100" height="100" as="geometry" />
        </mxCell>
        <mxCell id="9CLdCisUwHuKOpTyr1gm-16" value="" style="edgeStyle=orthogonalEdgeStyle;rounded=0;orthogonalLoop=1;jettySize=auto;html=1;" edge="1" parent="1" source="9CLdCisUwHuKOpTyr1gm-5" target="9CLdCisUwHuKOpTyr1gm-15">
          <mxGeometry relative="1" as="geometry" />
        </mxCell>
        <mxCell id="9CLdCisUwHuKOpTyr1gm-5" value="Servo Motor (M)&lt;div&gt;ON&lt;span style=&quot;background-color: transparent; color: light-dark(rgb(0, 0, 0), rgb(255, 255, 255));&quot;&gt;&amp;nbsp;&lt;/span&gt;&lt;/div&gt;" style="shape=parallelogram;perimeter=parallelogramPerimeter;whiteSpace=wrap;html=1;dashed=0;" vertex="1" parent="1">
          <mxGeometry x="265" y="430" width="130" height="70" as="geometry" />
        </mxCell>
        <mxCell id="9CLdCisUwHuKOpTyr1gm-14" style="edgeStyle=orthogonalEdgeStyle;rounded=0;orthogonalLoop=1;jettySize=auto;html=1;" edge="1" parent="1" source="9CLdCisUwHuKOpTyr1gm-6" target="9CLdCisUwHuKOpTyr1gm-4">
          <mxGeometry relative="1" as="geometry">
            <Array as="points">
              <mxPoint x="565" y="320" />
            </Array>
          </mxGeometry>
        </mxCell>
        <mxCell id="9CLdCisUwHuKOpTyr1gm-6" value="Servo Motor (M)&lt;div&gt;remains OFF&lt;/div&gt;" style="shape=parallelogram;perimeter=parallelogramPerimeter;whiteSpace=wrap;html=1;dashed=0;" vertex="1" parent="1">
          <mxGeometry x="500" y="350" width="130" height="70" as="geometry" />
        </mxCell>
        <mxCell id="9CLdCisUwHuKOpTyr1gm-12" value="YES" style="text;html=1;align=center;verticalAlign=middle;resizable=0;points=[];autosize=1;strokeColor=none;fillColor=none;" vertex="1" parent="1">
          <mxGeometry x="280" y="400" width="50" height="30" as="geometry" />
        </mxCell>
        <mxCell id="9CLdCisUwHuKOpTyr1gm-13" value="NO" style="text;html=1;align=center;verticalAlign=middle;resizable=0;points=[];autosize=1;strokeColor=none;fillColor=none;" vertex="1" parent="1">
          <mxGeometry x="445" y="350" width="40" height="30" as="geometry" />
        </mxCell>
        <mxCell id="9CLdCisUwHuKOpTyr1gm-18" value="" style="edgeStyle=orthogonalEdgeStyle;rounded=0;orthogonalLoop=1;jettySize=auto;html=1;" edge="1" parent="1" source="9CLdCisUwHuKOpTyr1gm-15" target="9CLdCisUwHuKOpTyr1gm-17">
          <mxGeometry relative="1" as="geometry" />
        </mxCell>
        <mxCell id="9CLdCisUwHuKOpTyr1gm-21" value="" style="edgeStyle=orthogonalEdgeStyle;rounded=0;orthogonalLoop=1;jettySize=auto;html=1;" edge="1" parent="1" source="9CLdCisUwHuKOpTyr1gm-15" target="9CLdCisUwHuKOpTyr1gm-20">
          <mxGeometry relative="1" as="geometry" />
        </mxCell>
        <mxCell id="9CLdCisUwHuKOpTyr1gm-15" value="Is Food Weight (Fw)=NOT EMPTY" style="strokeWidth=2;html=1;shape=mxgraph.flowchart.decision;whiteSpace=wrap;direction=south;" vertex="1" parent="1">
          <mxGeometry x="265" y="540" width="130" height="130" as="geometry" />
        </mxCell>
        <mxCell id="9CLdCisUwHuKOpTyr1gm-17" value="Buzzer (B)&amp;nbsp;&lt;div&gt;ON&lt;/div&gt;" style="shape=parallelogram;perimeter=parallelogramPerimeter;whiteSpace=wrap;html=1;dashed=0;" vertex="1" parent="1">
          <mxGeometry x="485" y="580" width="100" height="50" as="geometry" />
        </mxCell>
        <mxCell id="9CLdCisUwHuKOpTyr1gm-19" value="NO" style="text;html=1;align=center;verticalAlign=middle;resizable=0;points=[];autosize=1;strokeColor=none;fillColor=none;" vertex="1" parent="1">
          <mxGeometry x="445" y="570" width="40" height="30" as="geometry" />
        </mxCell>
        <mxCell id="9CLdCisUwHuKOpTyr1gm-26" value="" style="edgeStyle=orthogonalEdgeStyle;rounded=0;orthogonalLoop=1;jettySize=auto;html=1;" edge="1" parent="1" source="9CLdCisUwHuKOpTyr1gm-20" target="9CLdCisUwHuKOpTyr1gm-25">
          <mxGeometry relative="1" as="geometry" />
        </mxCell>
        <mxCell id="9CLdCisUwHuKOpTyr1gm-20" value="Wait&amp;nbsp;&lt;div&gt;for 10 mins&lt;/div&gt;" style="shape=parallelogram;perimeter=parallelogramPerimeter;whiteSpace=wrap;html=1;fixedSize=1;strokeWidth=2;" vertex="1" parent="1">
          <mxGeometry x="270" y="710" width="120" height="60" as="geometry" />
        </mxCell>
        <mxCell id="9CLdCisUwHuKOpTyr1gm-32" value="" style="edgeStyle=orthogonalEdgeStyle;rounded=0;orthogonalLoop=1;jettySize=auto;html=1;" edge="1" parent="1" source="9CLdCisUwHuKOpTyr1gm-25" target="9CLdCisUwHuKOpTyr1gm-31">
          <mxGeometry relative="1" as="geometry" />
        </mxCell>
        <mxCell id="9CLdCisUwHuKOpTyr1gm-34" style="edgeStyle=orthogonalEdgeStyle;rounded=0;orthogonalLoop=1;jettySize=auto;html=1;entryX=0.5;entryY=1;entryDx=0;entryDy=0;" edge="1" parent="1" source="9CLdCisUwHuKOpTyr1gm-25" target="9CLdCisUwHuKOpTyr1gm-17">
          <mxGeometry relative="1" as="geometry" />
        </mxCell>
        <mxCell id="9CLdCisUwHuKOpTyr1gm-25" value="Is Food Level&lt;div&gt;(Fl)=FULL&lt;/div&gt;" style="strokeWidth=2;html=1;shape=mxgraph.flowchart.decision;whiteSpace=wrap;direction=south;" vertex="1" parent="1">
          <mxGeometry x="265" y="810" width="130" height="130" as="geometry" />
        </mxCell>
        <mxCell id="9CLdCisUwHuKOpTyr1gm-33" value="" style="edgeStyle=orthogonalEdgeStyle;rounded=0;orthogonalLoop=1;jettySize=auto;html=1;" edge="1" parent="1" source="9CLdCisUwHuKOpTyr1gm-31" target="9CLdCisUwHuKOpTyr1gm-2">
          <mxGeometry relative="1" as="geometry" />
        </mxCell>
        <mxCell id="9CLdCisUwHuKOpTyr1gm-37" style="edgeStyle=orthogonalEdgeStyle;rounded=0;orthogonalLoop=1;jettySize=auto;html=1;entryX=0;entryY=0.5;entryDx=0;entryDy=0;" edge="1" parent="1" source="9CLdCisUwHuKOpTyr1gm-31" target="9CLdCisUwHuKOpTyr1gm-4">
          <mxGeometry relative="1" as="geometry">
            <Array as="points">
              <mxPoint x="200" y="985" />
              <mxPoint x="200" y="320" />
            </Array>
          </mxGeometry>
        </mxCell>
        <mxCell id="9CLdCisUwHuKOpTyr1gm-31" value="" style="verticalLabelPosition=bottom;verticalAlign=top;html=1;shape=mxgraph.flowchart.on-page_reference;" vertex="1" parent="1">
          <mxGeometry x="315" y="970" width="30" height="30" as="geometry" />
        </mxCell>
        <mxCell id="9CLdCisUwHuKOpTyr1gm-35" value="YES" style="text;html=1;align=center;verticalAlign=middle;resizable=0;points=[];autosize=1;strokeColor=none;fillColor=none;" vertex="1" parent="1">
          <mxGeometry x="390" y="848" width="50" height="30" as="geometry" />
        </mxCell>
        <mxCell id="9CLdCisUwHuKOpTyr1gm-36" value="NO" style="text;html=1;align=center;verticalAlign=middle;resizable=0;points=[];autosize=1;strokeColor=none;fillColor=none;" vertex="1" parent="1">
          <mxGeometry x="330" y="940" width="40" height="30" as="geometry" />
        </mxCell>
        <mxCell id="9CLdCisUwHuKOpTyr1gm-38" value="YES" style="text;html=1;align=center;verticalAlign=middle;resizable=0;points=[];autosize=1;strokeColor=none;fillColor=none;" vertex="1" parent="1">
          <mxGeometry x="325" y="678" width="50" height="30" as="geometry" />
        </mxCell>
        <mxCell id="9CLdCisUwHuKOpTyr1gm-39" style="edgeStyle=orthogonalEdgeStyle;rounded=0;orthogonalLoop=1;jettySize=auto;html=1;entryX=1;entryY=0.5;entryDx=0;entryDy=0;entryPerimeter=0;" edge="1" parent="1" source="9CLdCisUwHuKOpTyr1gm-17" target="9CLdCisUwHuKOpTyr1gm-31">
          <mxGeometry relative="1" as="geometry">
            <Array as="points">
              <mxPoint x="590" y="605" />
              <mxPoint x="590" y="985" />
            </Array>
          </mxGeometry>
        </mxCell>
      </root>
    </mxGraphModel>
  </diagram>
</mxfile>
